<svg width="1000" height="1000" viewBox="0 0 1000 1000" fill="none" xmlns="http://www.w3.org/2000/svg">
  <rect width="1000" height="1000" rx="56" fill="#140F22"/>
  <rect width="1000" height="1000" rx="56" fill="url(#bg)"/>
  <circle cx="770" cy="186" r="148" fill="#FFB66E" fill-opacity="0.86"/>
  <circle cx="220" cy="286" r="24" fill="#FFE9A5"/>
  <circle cx="344" cy="174" r="18" fill="#FFD98A"/>
  <circle cx="466" cy="262" r="22" fill="#FFE6AE"/>
  <circle cx="606" cy="146" r="16" fill="#FFD98A"/>
  <path d="M74 720L234 514L336 648L462 452L580 612L704 372L874 720H74Z" fill="#1D1736" fill-opacity="0.92"/>
  <path d="M0 770C176 730 310 716 446 730C610 748 770 824 1000 794V1000H0V770Z" fill="#473B8D" fill-opacity="0.88"/>
  <path d="M0 844C198 814 336 820 502 840C662 859 794 914 1000 886V1000H0V844Z" fill="#7C68DA" fill-opacity="0.8"/>
  <text x="88" y="798" fill="#FFF2E5" font-family="Arial, sans-serif" font-size="88" font-weight="700">Cidade Vaga-Lume</text>
  <text x="92" y="866" fill="#E0D9FF" font-family="Arial, sans-serif" font-size="34" letter-spacing="8">AURORA NORTE · EP 2026</text>
  <defs>
    <linearGradient id="bg" x1="84" y1="96" x2="868" y2="892" gradientUnits="userSpaceOnUse">
      <stop stop-color="#281641"/>
      <stop offset="0.5" stop-color="#362B71"/>
      <stop offset="1" stop-color="#14233A"/>
    </linearGradient>
  </defs>
</svg>
