<svg width="1000" height="1000" viewBox="0 0 1000 1000" fill="none" xmlns="http://www.w3.org/2000/svg">
  <rect width="1000" height="1000" rx="56" fill="#130F0E"/>
  <rect width="1000" height="1000" rx="56" fill="url(#bg)"/>
  <circle cx="794" cy="186" r="150" fill="#F2A356" fill-opacity="0.82"/>
  <rect x="112" y="144" width="228" height="228" rx="36" fill="#22B2A4" fill-opacity="0.16"/>
  <rect x="198" y="276" width="106" height="444" rx="18" fill="#130F0E" fill-opacity="0.78"/>
  <rect x="370" y="198" width="106" height="522" rx="18" fill="#130F0E" fill-opacity="0.72"/>
  <rect x="542" y="332" width="106" height="388" rx="18" fill="#130F0E" fill-opacity="0.78"/>
  <rect x="714" y="248" width="106" height="472" rx="18" fill="#130F0E" fill-opacity="0.74"/>
  <path d="M0 770C184 742 340 744 474 762C656 786 820 858 1000 830V1000H0V770Z" fill="#1F6C67" fill-opacity="0.84"/>
  <path d="M0 850C170 828 314 838 466 864C628 891 790 954 1000 920V1000H0V850Z" fill="#B14D2F" fill-opacity="0.86"/>
  <text x="88" y="800" fill="#FFF2E7" font-family="Arial, sans-serif" font-size="92" font-weight="700">Turno da Noite</text>
  <text x="92" y="868" fill="#DFD6D1" font-family="Arial, sans-serif" font-size="34" letter-spacing="8">COLETIVO LINHA · AO VIVO 2025</text>
  <defs>
    <linearGradient id="bg" x1="86" y1="92" x2="882" y2="896" gradientUnits="userSpaceOnUse">
      <stop stop-color="#251816"/>
      <stop offset="0.5" stop-color="#4F2F27"/>
      <stop offset="1" stop-color="#101C1B"/>
    </linearGradient>
  </defs>
</svg>
